<?xml version="1.0" encoding="UTF-8" standalone="no"?>
<!-- Created with Inkscape (http://www.inkscape.org/) -->
<svg
   xmlns:dc="http://purl.org/dc/elements/1.1/"
   xmlns:cc="http://creativecommons.org/ns#"
   xmlns:rdf="http://www.w3.org/1999/02/22-rdf-syntax-ns#"
   xmlns:svg="http://www.w3.org/2000/svg"
   xmlns="http://www.w3.org/2000/svg"
   xmlns:sodipodi="http://sodipodi.sourceforge.net/DTD/sodipodi-0.dtd"
   xmlns:inkscape="http://www.inkscape.org/namespaces/inkscape"
   width="180"
   height="180"
   id="svg2"
   sodipodi:version="0.32"
   inkscape:version="0.46"
   version="1.0"
   sodipodi:docname="bin.svg"
   inkscape:output_extension="org.inkscape.output.svg.inkscape"
   inkscape:export-filename="/home/joel/Programs/eclipse/workspace/GAANN_Forum_3/images/bin.png"
   inkscape:export-xdpi="1000"
   inkscape:export-ydpi="1000">
  <defs
     id="defs4">
    <marker
       inkscape:stockid="Arrow2Mstart"
       orient="auto"
       refY="0.0"
       refX="0.0"
       id="Arrow2Mstart"
       style="overflow:visible">
      <path
         id="path3212"
         style="font-size:12.0;fill-rule:evenodd;stroke-width:0.62500000;stroke-linejoin:round"
         d="M 8.7185878,4.0337352 L -2.2072895,0.016013256 L 8.7185884,-4.0017078 C 6.9730900,-1.6296469 6.9831476,1.6157441 8.7185878,4.0337352 z "
         transform="scale(0.6) translate(0,0)" />
    </marker>
    <marker
       inkscape:stockid="Arrow2Mend"
       orient="auto"
       refY="0.0"
       refX="0.0"
       id="Arrow2Mend"
       style="overflow:visible;">
      <path
         id="path3215"
         style="font-size:12.0;fill-rule:evenodd;stroke-width:0.62500000;stroke-linejoin:round;"
         d="M 8.7185878,4.0337352 L -2.2072895,0.016013256 L 8.7185884,-4.0017078 C 6.9730900,-1.6296469 6.9831476,1.6157441 8.7185878,4.0337352 z "
         transform="scale(0.6) rotate(180) translate(0,0)" />
    </marker>
    <inkscape:perspective
       sodipodi:type="inkscape:persp3d"
       inkscape:vp_x="0 : 526.18109 : 1"
       inkscape:vp_y="0 : 1000 : 0"
       inkscape:vp_z="744.09448 : 526.18109 : 1"
       inkscape:persp3d-origin="372.04724 : 350.78739 : 1"
       id="perspective10" />
    <clipPath
       id="cp1">
      <polygon
         id="polygon11"
         points="75,13 75,234 433,234 433,13 75,13 " />
    </clipPath>
    <inkscape:perspective
       id="perspective419"
       inkscape:persp3d-origin="372.04724 : 350.78739 : 1"
       inkscape:vp_z="744.09448 : 526.18109 : 1"
       inkscape:vp_y="0 : 1000 : 0"
       inkscape:vp_x="0 : 526.18109 : 1"
       sodipodi:type="inkscape:persp3d" />
  </defs>
  <sodipodi:namedview
     id="base"
     pagecolor="#ffffff"
     bordercolor="#666666"
     borderopacity="1.0"
     gridtolerance="10000"
     guidetolerance="10"
     objecttolerance="10"
     inkscape:pageopacity="1"
     inkscape:pageshadow="2"
     inkscape:zoom="2.7666667"
     inkscape:cx="90"
     inkscape:cy="85.28339"
     inkscape:document-units="px"
     inkscape:current-layer="layer1"
     showgrid="false"
     units="in"
     inkscape:window-width="1280"
     inkscape:window-height="727"
     inkscape:window-x="0"
     inkscape:window-y="25" />
  <metadata
     id="metadata7">
    <rdf:RDF>
      <cc:Work
         rdf:about="">
        <dc:format>image/svg+xml</dc:format>
        <dc:type
           rdf:resource="http://purl.org/dc/dcmitype/StillImage" />
      </cc:Work>
    </rdf:RDF>
  </metadata>
  <g
     inkscape:label="Layer 1"
     inkscape:groupmode="layer"
     id="layer1">
    <path
       style="opacity:0.5;fill:none;fill-rule:evenodd;stroke:#000000;stroke-width:1.01738834px;stroke-linecap:butt;stroke-linejoin:miter;marker-end:url(#Arrow2Mend);stroke-opacity:1"
       d="M 19.141223,154.84333 L 166.91832,154.84333"
       id="path2413" />
    <path
       d="M 21.325302,130.66264 A 4.879518,4.879518 0 1 1 11.566266,130.66264 A 4.879518,4.879518 0 1 1 21.325302,130.66264 z"
       sodipodi:ry="4.879518"
       sodipodi:rx="4.879518"
       sodipodi:cy="130.66264"
       sodipodi:cx="16.445784"
       id="path3963"
       style="opacity:0.5;fill:#00ff00;fill-opacity:1;fill-rule:evenodd;stroke:#000000;stroke-width:1;stroke-miterlimit:4;stroke-dasharray:none;stroke-opacity:1"
       sodipodi:type="arc"
       transform="translate(158,24)" />
    <g
       id="g3972"
       transform="translate(-30,92)">
      <path
         id="rect3965"
         d="M 30.71875,43.375 L 30.71875,80.59375 L 35.78125,80.59375 C 41.387996,80.59375 45.906248,76.075499 45.90625,70.46875 L 45.90625,53.5 C 45.90625,47.893254 41.387997,43.375 35.78125,43.375 L 30.71875,43.375 z"
         style="opacity:1;fill:#0090ff;fill-opacity:1;fill-rule:evenodd;stroke:#000000;stroke-width:1;stroke-miterlimit:4;stroke-dasharray:none;stroke-opacity:1" />
      <rect
         ry="0"
         y="53.026421"
         x="46.060928"
         height="18.433735"
         width="2.5301213"
         id="rect3970"
         style="opacity:1;fill:#6c5353;fill-opacity:1;fill-rule:evenodd;stroke:#000000;stroke-width:1;stroke-miterlimit:4;stroke-dasharray:none;stroke-opacity:1" />
    </g>
    <text
       xml:space="preserve"
       style="font-size:14px;font-style:italic;font-weight:normal;fill:#000000;fill-opacity:1;stroke:none;stroke-width:1px;stroke-linecap:butt;stroke-linejoin:miter;stroke-opacity:1;font-family:Bitstream Vera Sans;-inkscape-font-specification:Sans Italic"
       x="150.12048"
       y="170.96387"
       id="text3976"><tspan
         sodipodi:role="line"
         id="tspan3978"
         x="150.12048"
         y="170.96387"
         style="font-style:normal">z</tspan></text>
    <text
       xml:space="preserve"
       style="font-size:14px;font-style:italic;font-weight:normal;fill:#000000;fill-opacity:1;stroke:none;stroke-width:1px;stroke-linecap:butt;stroke-linejoin:miter;stroke-opacity:1;font-family:Bitstream Vera Sans;-inkscape-font-specification:Sans Italic"
       x="156.55421"
       y="173.3253"
       id="text3980"><tspan
         sodipodi:role="line"
         id="tspan3982"
         x="156.55421"
         y="173.3253"
         style="font-size:10px;font-style:normal">max</tspan></text>
    <text
       xml:space="preserve"
       style="font-size:14px;font-style:italic;font-weight:normal;fill:#000000;fill-opacity:1;stroke:none;stroke-width:1px;stroke-linecap:butt;stroke-linejoin:miter;stroke-opacity:1;font-family:Bitstream Vera Sans;-inkscape-font-specification:Sans"
       x="92.987953"
       y="172.24097"
       id="text3984"><tspan
         sodipodi:role="line"
         id="tspan3986"
         x="92.987953"
         y="172.24097"
         style="font-style:normal">E</tspan></text>
    <path
       style="fill:none;fill-rule:evenodd;stroke:#000000;stroke-width:1px;stroke-linecap:butt;stroke-linejoin:miter;marker-start:url(#Arrow2Mstart);stroke-opacity:1"
       d="M 78.481928,161.25301 L 90.409639,161.25301"
       id="path3988" />
    <path
       id="path5028"
       d="M 78.481928,167.25301 L 90.409639,167.25301"
       style="fill:none;fill-rule:evenodd;stroke:#000000;stroke-width:1px;stroke-linecap:butt;stroke-linejoin:miter;marker-start:url(#Arrow2Mstart);stroke-opacity:1" />
    <path
       style="fill:none;fill-rule:evenodd;stroke:#000000;stroke-width:1px;stroke-linecap:butt;stroke-linejoin:miter;marker-start:url(#Arrow2Mstart);stroke-opacity:1"
       d="M 78.481928,173.25301 L 90.409639,173.25301"
       id="path5030" />
    <g
       id="g6209"
       transform="translate(0,-4)">
      <path
         id="path5032"
         d="M 19.590361,22.771084 L 19.590361,122.16867"
         style="opacity:0.5;fill:none;fill-rule:evenodd;stroke:#000000;stroke-width:1;stroke-linecap:butt;stroke-linejoin:miter;stroke-miterlimit:4;stroke-dasharray:none;stroke-opacity:1" />
      <path
         id="path5034"
         d="M 54.273087,22.771084 L 54.273087,122.16867"
         style="opacity:0.5;fill:none;fill-rule:evenodd;stroke:#000000;stroke-width:1;stroke-linecap:butt;stroke-linejoin:miter;stroke-miterlimit:4;stroke-dasharray:none;stroke-opacity:1" />
      <path
         id="path5036"
         d="M 88.95582,22.771084 L 88.95582,122.16867"
         style="opacity:0.5;fill:none;fill-rule:evenodd;stroke:#000000;stroke-width:1;stroke-linecap:butt;stroke-linejoin:miter;stroke-miterlimit:4;stroke-dasharray:none;stroke-opacity:1" />
      <path
         id="path5038"
         d="M 106.29718,22.771084 L 106.29718,122.16867"
         style="opacity:0.5;fill:none;fill-rule:evenodd;stroke:#000000;stroke-width:1;stroke-linecap:butt;stroke-linejoin:miter;stroke-miterlimit:4;stroke-dasharray:none;stroke-opacity:1" />
      <path
         id="path5040"
         d="M 71.614456,22.771084 L 71.614456,122.16867"
         style="opacity:0.5;fill:none;fill-rule:evenodd;stroke:#000000;stroke-width:1;stroke-linecap:butt;stroke-linejoin:miter;stroke-miterlimit:4;stroke-dasharray:none;stroke-opacity:1" />
      <path
         id="path5042"
         d="M 36.931724,22.771084 L 36.931724,122.16866"
         style="opacity:0.5;fill:none;fill-rule:evenodd;stroke:#000000;stroke-width:1;stroke-linecap:butt;stroke-linejoin:miter;stroke-miterlimit:4;stroke-dasharray:none;stroke-opacity:1" />
      <path
         id="path5044"
         d="M 140.97991,22.771084 L 140.97991,122.16867"
         style="opacity:0.5;fill:none;fill-rule:evenodd;stroke:#000000;stroke-width:1;stroke-linecap:butt;stroke-linejoin:miter;stroke-miterlimit:4;stroke-dasharray:none;stroke-opacity:1" />
      <path
         id="path5046"
         d="M 158.32127,22.771084 L 158.32127,122.16867"
         style="opacity:0.5;fill:none;fill-rule:evenodd;stroke:#000000;stroke-width:1;stroke-linecap:butt;stroke-linejoin:miter;stroke-miterlimit:4;stroke-dasharray:none;stroke-opacity:1" />
      <path
         id="path5048"
         d="M 175.66265,22.771084 L 175.66265,122.16867"
         style="opacity:0.5;fill:none;fill-rule:evenodd;stroke:#000000;stroke-width:1;stroke-linecap:butt;stroke-linejoin:miter;stroke-miterlimit:4;stroke-dasharray:none;stroke-opacity:1" />
      <path
         id="path5050"
         d="M 123.63855,22.771084 L 123.63855,122.16867"
         style="opacity:0.5;fill:none;fill-rule:evenodd;stroke:#000000;stroke-width:1;stroke-linecap:butt;stroke-linejoin:miter;stroke-miterlimit:4;stroke-dasharray:none;stroke-opacity:1" />
      <path
         id="path5052"
         d="M 19.114234,122.16867 L 176.14282,122.16867"
         style="opacity:0.5;fill:none;fill-rule:evenodd;stroke:#000000;stroke-width:1;stroke-linecap:butt;stroke-linejoin:miter;stroke-miterlimit:4;stroke-dasharray:none;stroke-opacity:1" />
    </g>
    <polyline
       transform="matrix(0.1223064,0,0,0.1019847,122.5666,93.545102)"
       style="fill:none;stroke:#00ff00;stroke-width:8.95381069;stroke-miterlimit:4;stroke-dasharray:none;stroke-opacity:1"
       id="polyline13"
       points="83,229.35 83.1051,229.35 83.2103,229.349 83.3154,229.348 83.4205,229.348 83.5256,229.347 83.6307,229.346 83.841,229.344 83.9461,229.343 84.0512,229.342 84.2615,229.34 84.3666,229.339 84.4717,229.337 84.682,229.334 84.7871,229.333 84.8922,229.331 85.1025,229.328 85.2076,229.326 85.3127,229.324 85.523,229.32 85.6281,229.318 85.7332,229.316 85.9435,229.312 86.364,229.302 86.4691,229.3 86.5742,229.297 86.7844,229.292 87.2049,229.28 87.3101,229.277 87.4152,229.274 87.6254,229.267 88.0459,229.254 88.1511,229.25 88.2562,229.246 88.4664,229.239 88.8869,229.223 89.7279,229.188 89.8419,229.183 89.9558,229.178 90.1838,229.168 90.6396,229.146 91.5514,229.1 91.6653,229.093 91.7793,229.087 92.0072,229.074 92.4631,229.048 93.3748,228.992 93.4888,228.984 93.6027,228.977 93.8307,228.962 94.2865,228.931 95.1983,228.865 97.0217,228.72 97.1281,228.711 97.2345,228.702 97.4474,228.683 97.873,228.646 98.7243,228.568 100.427,228.399 100.533,228.388 100.64,228.377 100.853,228.355 101.278,228.309 102.13,228.215 103.832,228.015 103.937,228.003 104.041,227.99 104.249,227.964 104.667,227.912 105.501,227.804 107.171,227.578 110.509,227.082 110.622,227.065 110.735,227.047 110.962,227.011 111.414,226.938 112.32,226.789 114.13,226.479 117.752,225.808 117.857,225.787 117.963,225.767 118.174,225.725 118.597,225.642 119.442,225.472 121.132,225.122 124.511,224.379 131.837,222.58 139.028,220.568 145.737,218.479 153.011,215.99 159.802,213.465 166.459,210.806 173.683,207.723 180.423,204.667 187.729,201.167 194.901,197.547 201.59,194.014 208.845,190.016 215.616,186.136 222.953,181.775 230.157,177.341 236.878,173.075 244.164,168.313 250.967,163.744 257.636,159.154 264.872,154.055 271.624,149.19 278.942,143.806 286.126,138.411 292.827,133.287 300.094,127.632 306.877,122.267 313.527,116.929 320.743,111.052 327.476,105.493 334.774,99.3876 341.589,93.6149 348.271,87.8909 355.518,81.6128 362.282,75.6908 369.612,69.2076 376.808,62.7785 383.521,56.7259 390.8,50.1048 397.596,43.8702 404.258,37.7097 411.486,30.9731 418.23,24.6386 418.348,24.5277 418.466,24.4168 418.701,24.1949 419.171,23.751 420.112,22.8626 421.995,21.083 422.112,20.9717 422.23,20.8603 422.465,20.6376 422.936,20.1919 423.877,19.2999 423.995,19.1883 424.112,19.0768 424.348,18.8536 424.818,18.407 424.936,18.2953 425.053,18.1837 425.289,17.9603 425.406,17.8485 425.524,17.7368 425.642,17.625 425.759,17.5133 " />
    <polyline
       points="83,229.35 83.1051,229.35 83.2103,229.349 83.3154,229.348 83.4205,229.348 83.5256,229.347 83.6307,229.346 83.841,229.344 83.9461,229.343 84.0512,229.342 84.2615,229.34 84.3666,229.339 84.4717,229.337 84.682,229.334 84.7871,229.333 84.8922,229.331 85.1025,229.328 85.2076,229.326 85.3127,229.324 85.523,229.32 85.6281,229.318 85.7332,229.316 85.9435,229.312 86.364,229.302 86.4691,229.3 86.5742,229.297 86.7844,229.292 87.2049,229.28 87.3101,229.277 87.4152,229.274 87.6254,229.267 88.0459,229.254 88.1511,229.25 88.2562,229.246 88.4664,229.239 88.8869,229.223 89.7279,229.188 89.8419,229.183 89.9558,229.178 90.1838,229.168 90.6396,229.146 91.5514,229.1 91.6653,229.093 91.7793,229.087 92.0072,229.074 92.4631,229.048 93.3748,228.992 93.4888,228.984 93.6027,228.977 93.8307,228.962 94.2865,228.931 95.1983,228.865 97.0217,228.72 97.1281,228.711 97.2345,228.702 97.4474,228.683 97.873,228.646 98.7243,228.568 100.427,228.399 100.533,228.388 100.64,228.377 100.853,228.355 101.278,228.309 102.13,228.215 103.832,228.015 103.937,228.003 104.041,227.99 104.249,227.964 104.667,227.912 105.501,227.804 107.171,227.578 110.509,227.082 110.622,227.065 110.735,227.047 110.962,227.011 111.414,226.938 112.32,226.789 114.13,226.479 117.752,225.808 117.857,225.787 117.963,225.767 118.174,225.725 118.597,225.642 119.442,225.472 121.132,225.122 124.511,224.379 131.837,222.58 139.028,220.568 145.737,218.479 153.011,215.99 159.802,213.465 166.459,210.806 173.683,207.723 180.423,204.667 187.729,201.167 194.901,197.547 201.59,194.014 208.845,190.016 215.616,186.136 222.953,181.775 230.157,177.341 236.878,173.075 244.164,168.313 250.967,163.744 257.636,159.154 264.872,154.055 271.624,149.19 278.942,143.806 286.126,138.411 292.827,133.287 300.094,127.632 306.877,122.267 313.527,116.929 320.743,111.052 327.476,105.493 334.774,99.3876 341.589,93.6149 348.271,87.8909 355.518,81.6128 362.282,75.6908 369.612,69.2076 376.808,62.7785 383.521,56.7259 390.8,50.1048 397.596,43.8702 404.258,37.7097 411.486,30.9731 418.23,24.6386 418.348,24.5277 418.466,24.4168 418.701,24.1949 419.171,23.751 420.112,22.8626 421.995,21.083 422.112,20.9717 422.23,20.8603 422.465,20.6376 422.936,20.1919 423.877,19.2999 423.995,19.1883 424.112,19.0768 424.348,18.8536 424.818,18.407 424.936,18.2953 425.053,18.1837 425.289,17.9603 425.406,17.8485 425.524,17.7368 425.642,17.625 425.759,17.5133 "
       id="polyline6222"
       style="fill:none;stroke:#00ff00;stroke-width:7.52511978;stroke-miterlimit:4;stroke-dasharray:none;stroke-opacity:1"
       transform="matrix(0.1216072,0,0,0.1452158,104.13739,83.510217)" />
    <polyline
       points="83,229.35 83.1051,229.35 83.2103,229.349 83.3154,229.348 83.4205,229.348 83.5256,229.347 83.6307,229.346 83.841,229.344 83.9461,229.343 84.0512,229.342 84.2615,229.34 84.3666,229.339 84.4717,229.337 84.682,229.334 84.7871,229.333 84.8922,229.331 85.1025,229.328 85.2076,229.326 85.3127,229.324 85.523,229.32 85.6281,229.318 85.7332,229.316 85.9435,229.312 86.364,229.302 86.4691,229.3 86.5742,229.297 86.7844,229.292 87.2049,229.28 87.3101,229.277 87.4152,229.274 87.6254,229.267 88.0459,229.254 88.1511,229.25 88.2562,229.246 88.4664,229.239 88.8869,229.223 89.7279,229.188 89.8419,229.183 89.9558,229.178 90.1838,229.168 90.6396,229.146 91.5514,229.1 91.6653,229.093 91.7793,229.087 92.0072,229.074 92.4631,229.048 93.3748,228.992 93.4888,228.984 93.6027,228.977 93.8307,228.962 94.2865,228.931 95.1983,228.865 97.0217,228.72 97.1281,228.711 97.2345,228.702 97.4474,228.683 97.873,228.646 98.7243,228.568 100.427,228.399 100.533,228.388 100.64,228.377 100.853,228.355 101.278,228.309 102.13,228.215 103.832,228.015 103.937,228.003 104.041,227.99 104.249,227.964 104.667,227.912 105.501,227.804 107.171,227.578 110.509,227.082 110.622,227.065 110.735,227.047 110.962,227.011 111.414,226.938 112.32,226.789 114.13,226.479 117.752,225.808 117.857,225.787 117.963,225.767 118.174,225.725 118.597,225.642 119.442,225.472 121.132,225.122 124.511,224.379 131.837,222.58 139.028,220.568 145.737,218.479 153.011,215.99 159.802,213.465 166.459,210.806 173.683,207.723 180.423,204.667 187.729,201.167 194.901,197.547 201.59,194.014 208.845,190.016 215.616,186.136 222.953,181.775 230.157,177.341 236.878,173.075 244.164,168.313 250.967,163.744 257.636,159.154 264.872,154.055 271.624,149.19 278.942,143.806 286.126,138.411 292.827,133.287 300.094,127.632 306.877,122.267 313.527,116.929 320.743,111.052 327.476,105.493 334.774,99.3876 341.589,93.6149 348.271,87.8909 355.518,81.6128 362.282,75.6908 369.612,69.2076 376.808,62.7785 383.521,56.7259 390.8,50.1048 397.596,43.8702 404.258,37.7097 411.486,30.9731 418.23,24.6386 418.348,24.5277 418.466,24.4168 418.701,24.1949 419.171,23.751 420.112,22.8626 421.995,21.083 422.112,20.9717 422.23,20.8603 422.465,20.6376 422.936,20.1919 423.877,19.2999 423.995,19.1883 424.112,19.0768 424.348,18.8536 424.818,18.407 424.936,18.2953 425.053,18.1837 425.289,17.9603 425.406,17.8485 425.524,17.7368 425.642,17.625 425.759,17.5133 "
       id="polyline6224"
       style="fill:none;stroke:#00ff00;stroke-width:5.66888094;stroke-miterlimit:4;stroke-dasharray:none;stroke-opacity:1"
       transform="matrix(0.1206314,0,0,0.2579556,85.825935,57.486133)" />
    <polyline
       points="83,229.35 83.1051,229.35 83.2103,229.349 83.3154,229.348 83.4205,229.348 83.5256,229.347 83.6307,229.346 83.841,229.344 83.9461,229.343 84.0512,229.342 84.2615,229.34 84.3666,229.339 84.4717,229.337 84.682,229.334 84.7871,229.333 84.8922,229.331 85.1025,229.328 85.2076,229.326 85.3127,229.324 85.523,229.32 85.6281,229.318 85.7332,229.316 85.9435,229.312 86.364,229.302 86.4691,229.3 86.5742,229.297 86.7844,229.292 87.2049,229.28 87.3101,229.277 87.4152,229.274 87.6254,229.267 88.0459,229.254 88.1511,229.25 88.2562,229.246 88.4664,229.239 88.8869,229.223 89.7279,229.188 89.8419,229.183 89.9558,229.178 90.1838,229.168 90.6396,229.146 91.5514,229.1 91.6653,229.093 91.7793,229.087 92.0072,229.074 92.4631,229.048 93.3748,228.992 93.4888,228.984 93.6027,228.977 93.8307,228.962 94.2865,228.931 95.1983,228.865 97.0217,228.72 97.1281,228.711 97.2345,228.702 97.4474,228.683 97.873,228.646 98.7243,228.568 100.427,228.399 100.533,228.388 100.64,228.377 100.853,228.355 101.278,228.309 102.13,228.215 103.832,228.015 103.937,228.003 104.041,227.99 104.249,227.964 104.667,227.912 105.501,227.804 107.171,227.578 110.509,227.082 110.622,227.065 110.735,227.047 110.962,227.011 111.414,226.938 112.32,226.789 114.13,226.479 117.752,225.808 117.857,225.787 117.963,225.767 118.174,225.725 118.597,225.642 119.442,225.472 121.132,225.122 124.511,224.379 131.837,222.58 139.028,220.568 145.737,218.479 153.011,215.99 159.802,213.465 166.459,210.806 173.683,207.723 180.423,204.667 187.729,201.167 194.901,197.547 201.59,194.014 208.845,190.016 215.616,186.136 222.953,181.775 230.157,177.341 236.878,173.075 244.164,168.313 250.967,163.744 257.636,159.154 264.872,154.055 271.624,149.19 278.942,143.806 286.126,138.411 292.827,133.287 300.094,127.632 306.877,122.267 313.527,116.929 320.743,111.052 327.476,105.493 334.774,99.3876 341.589,93.6149 348.271,87.8909 355.518,81.6128 362.282,75.6908 369.612,69.2076 376.808,62.7785 383.521,56.7259 390.8,50.1048 397.596,43.8702 404.258,37.7097 411.486,30.9731 418.23,24.6386 418.348,24.5277 418.466,24.4168 418.701,24.1949 419.171,23.751 420.112,22.8626 421.995,21.083 422.112,20.9717 422.23,20.8603 422.465,20.6376 422.936,20.1919 423.877,19.2999 423.995,19.1883 424.112,19.0768 424.348,18.8536 424.818,18.407 424.936,18.2953 425.053,18.1837 425.289,17.9603 425.406,17.8485 425.524,17.7368 425.642,17.625 425.759,17.5133 "
       id="polyline6226"
       style="fill:none;stroke:#00ff00;stroke-width:4.52358246;stroke-miterlimit:4;stroke-dasharray:none;stroke-opacity:1"
       transform="matrix(0.1196919,0,0,0.4082914,67.499028,22.845593)" />
    <polyline
       transform="matrix(0.1206314,0,0,0.2579556,48.372122,57.486133)"
       style="fill:none;stroke:#00ff00;stroke-width:5.66888094;stroke-miterlimit:4;stroke-dasharray:none;stroke-opacity:1"
       id="polyline6228"
       points="83,229.35 83.1051,229.35 83.2103,229.349 83.3154,229.348 83.4205,229.348 83.5256,229.347 83.6307,229.346 83.841,229.344 83.9461,229.343 84.0512,229.342 84.2615,229.34 84.3666,229.339 84.4717,229.337 84.682,229.334 84.7871,229.333 84.8922,229.331 85.1025,229.328 85.2076,229.326 85.3127,229.324 85.523,229.32 85.6281,229.318 85.7332,229.316 85.9435,229.312 86.364,229.302 86.4691,229.3 86.5742,229.297 86.7844,229.292 87.2049,229.28 87.3101,229.277 87.4152,229.274 87.6254,229.267 88.0459,229.254 88.1511,229.25 88.2562,229.246 88.4664,229.239 88.8869,229.223 89.7279,229.188 89.8419,229.183 89.9558,229.178 90.1838,229.168 90.6396,229.146 91.5514,229.1 91.6653,229.093 91.7793,229.087 92.0072,229.074 92.4631,229.048 93.3748,228.992 93.4888,228.984 93.6027,228.977 93.8307,228.962 94.2865,228.931 95.1983,228.865 97.0217,228.72 97.1281,228.711 97.2345,228.702 97.4474,228.683 97.873,228.646 98.7243,228.568 100.427,228.399 100.533,228.388 100.64,228.377 100.853,228.355 101.278,228.309 102.13,228.215 103.832,228.015 103.937,228.003 104.041,227.99 104.249,227.964 104.667,227.912 105.501,227.804 107.171,227.578 110.509,227.082 110.622,227.065 110.735,227.047 110.962,227.011 111.414,226.938 112.32,226.789 114.13,226.479 117.752,225.808 117.857,225.787 117.963,225.767 118.174,225.725 118.597,225.642 119.442,225.472 121.132,225.122 124.511,224.379 131.837,222.58 139.028,220.568 145.737,218.479 153.011,215.99 159.802,213.465 166.459,210.806 173.683,207.723 180.423,204.667 187.729,201.167 194.901,197.547 201.59,194.014 208.845,190.016 215.616,186.136 222.953,181.775 230.157,177.341 236.878,173.075 244.164,168.313 250.967,163.744 257.636,159.154 264.872,154.055 271.624,149.19 278.942,143.806 286.126,138.411 292.827,133.287 300.094,127.632 306.877,122.267 313.527,116.929 320.743,111.052 327.476,105.493 334.774,99.3876 341.589,93.6149 348.271,87.8909 355.518,81.6128 362.282,75.6908 369.612,69.2076 376.808,62.7785 383.521,56.7259 390.8,50.1048 397.596,43.8702 404.258,37.7097 411.486,30.9731 418.23,24.6386 418.348,24.5277 418.466,24.4168 418.701,24.1949 419.171,23.751 420.112,22.8626 421.995,21.083 422.112,20.9717 422.23,20.8603 422.465,20.6376 422.936,20.1919 423.877,19.2999 423.995,19.1883 424.112,19.0768 424.348,18.8536 424.818,18.407 424.936,18.2953 425.053,18.1837 425.289,17.9603 425.406,17.8485 425.524,17.7368 425.642,17.625 425.759,17.5133 " />
    <polyline
       transform="matrix(0.1216072,0,0,0.1452158,29.229749,83.510217)"
       style="fill:none;stroke:#00ff00;stroke-width:7.52511978;stroke-miterlimit:4;stroke-dasharray:none;stroke-opacity:1"
       id="polyline6230"
       points="83,229.35 83.1051,229.35 83.2103,229.349 83.3154,229.348 83.4205,229.348 83.5256,229.347 83.6307,229.346 83.841,229.344 83.9461,229.343 84.0512,229.342 84.2615,229.34 84.3666,229.339 84.4717,229.337 84.682,229.334 84.7871,229.333 84.8922,229.331 85.1025,229.328 85.2076,229.326 85.3127,229.324 85.523,229.32 85.6281,229.318 85.7332,229.316 85.9435,229.312 86.364,229.302 86.4691,229.3 86.5742,229.297 86.7844,229.292 87.2049,229.28 87.3101,229.277 87.4152,229.274 87.6254,229.267 88.0459,229.254 88.1511,229.25 88.2562,229.246 88.4664,229.239 88.8869,229.223 89.7279,229.188 89.8419,229.183 89.9558,229.178 90.1838,229.168 90.6396,229.146 91.5514,229.1 91.6653,229.093 91.7793,229.087 92.0072,229.074 92.4631,229.048 93.3748,228.992 93.4888,228.984 93.6027,228.977 93.8307,228.962 94.2865,228.931 95.1983,228.865 97.0217,228.72 97.1281,228.711 97.2345,228.702 97.4474,228.683 97.873,228.646 98.7243,228.568 100.427,228.399 100.533,228.388 100.64,228.377 100.853,228.355 101.278,228.309 102.13,228.215 103.832,228.015 103.937,228.003 104.041,227.99 104.249,227.964 104.667,227.912 105.501,227.804 107.171,227.578 110.509,227.082 110.622,227.065 110.735,227.047 110.962,227.011 111.414,226.938 112.32,226.789 114.13,226.479 117.752,225.808 117.857,225.787 117.963,225.767 118.174,225.725 118.597,225.642 119.442,225.472 121.132,225.122 124.511,224.379 131.837,222.58 139.028,220.568 145.737,218.479 153.011,215.99 159.802,213.465 166.459,210.806 173.683,207.723 180.423,204.667 187.729,201.167 194.901,197.547 201.59,194.014 208.845,190.016 215.616,186.136 222.953,181.775 230.157,177.341 236.878,173.075 244.164,168.313 250.967,163.744 257.636,159.154 264.872,154.055 271.624,149.19 278.942,143.806 286.126,138.411 292.827,133.287 300.094,127.632 306.877,122.267 313.527,116.929 320.743,111.052 327.476,105.493 334.774,99.3876 341.589,93.6149 348.271,87.8909 355.518,81.6128 362.282,75.6908 369.612,69.2076 376.808,62.7785 383.521,56.7259 390.8,50.1048 397.596,43.8702 404.258,37.7097 411.486,30.9731 418.23,24.6386 418.348,24.5277 418.466,24.4168 418.701,24.1949 419.171,23.751 420.112,22.8626 421.995,21.083 422.112,20.9717 422.23,20.8603 422.465,20.6376 422.936,20.1919 423.877,19.2999 423.995,19.1883 424.112,19.0768 424.348,18.8536 424.818,18.407 424.936,18.2953 425.053,18.1837 425.289,17.9603 425.406,17.8485 425.524,17.7368 425.642,17.625 425.759,17.5133 " />
    <polyline
       points="83,229.35 83.1051,229.35 83.2103,229.349 83.3154,229.348 83.4205,229.348 83.5256,229.347 83.6307,229.346 83.841,229.344 83.9461,229.343 84.0512,229.342 84.2615,229.34 84.3666,229.339 84.4717,229.337 84.682,229.334 84.7871,229.333 84.8922,229.331 85.1025,229.328 85.2076,229.326 85.3127,229.324 85.523,229.32 85.6281,229.318 85.7332,229.316 85.9435,229.312 86.364,229.302 86.4691,229.3 86.5742,229.297 86.7844,229.292 87.2049,229.28 87.3101,229.277 87.4152,229.274 87.6254,229.267 88.0459,229.254 88.1511,229.25 88.2562,229.246 88.4664,229.239 88.8869,229.223 89.7279,229.188 89.8419,229.183 89.9558,229.178 90.1838,229.168 90.6396,229.146 91.5514,229.1 91.6653,229.093 91.7793,229.087 92.0072,229.074 92.4631,229.048 93.3748,228.992 93.4888,228.984 93.6027,228.977 93.8307,228.962 94.2865,228.931 95.1983,228.865 97.0217,228.72 97.1281,228.711 97.2345,228.702 97.4474,228.683 97.873,228.646 98.7243,228.568 100.427,228.399 100.533,228.388 100.64,228.377 100.853,228.355 101.278,228.309 102.13,228.215 103.832,228.015 103.937,228.003 104.041,227.99 104.249,227.964 104.667,227.912 105.501,227.804 107.171,227.578 110.509,227.082 110.622,227.065 110.735,227.047 110.962,227.011 111.414,226.938 112.32,226.789 114.13,226.479 117.752,225.808 117.857,225.787 117.963,225.767 118.174,225.725 118.597,225.642 119.442,225.472 121.132,225.122 124.511,224.379 131.837,222.58 139.028,220.568 145.737,218.479 153.011,215.99 159.802,213.465 166.459,210.806 173.683,207.723 180.423,204.667 187.729,201.167 194.901,197.547 201.59,194.014 208.845,190.016 215.616,186.136 222.953,181.775 230.157,177.341 236.878,173.075 244.164,168.313 250.967,163.744 257.636,159.154 264.872,154.055 271.624,149.19 278.942,143.806 286.126,138.411 292.827,133.287 300.094,127.632 306.877,122.267 313.527,116.929 320.743,111.052 327.476,105.493 334.774,99.3876 341.589,93.6149 348.271,87.8909 355.518,81.6128 362.282,75.6908 369.612,69.2076 376.808,62.7785 383.521,56.7259 390.8,50.1048 397.596,43.8702 404.258,37.7097 411.486,30.9731 418.23,24.6386 418.348,24.5277 418.466,24.4168 418.701,24.1949 419.171,23.751 420.112,22.8626 421.995,21.083 422.112,20.9717 422.23,20.8603 422.465,20.6376 422.936,20.1919 423.877,19.2999 423.995,19.1883 424.112,19.0768 424.348,18.8536 424.818,18.407 424.936,18.2953 425.053,18.1837 425.289,17.9603 425.406,17.8485 425.524,17.7368 425.642,17.625 425.759,17.5133 "
       id="polyline6232"
       style="fill:none;stroke:#00ff00;stroke-width:8.95381069;stroke-miterlimit:4;stroke-dasharray:none;stroke-opacity:1"
       transform="matrix(0.1223064,0,0,0.1019847,10.205154,93.545102)" />
    <text
       xml:space="preserve"
       style="font-size:14px;font-style:italic;font-weight:normal;fill:#000000;fill-opacity:1;stroke:none;stroke-width:1px;stroke-linecap:butt;stroke-linejoin:miter;stroke-opacity:1;font-family:Bitstream Vera Sans;-inkscape-font-specification:Sans"
       x="23.638554"
       y="133.37349"
       id="text6234"><tspan
         sodipodi:role="line"
         id="tspan6236"
         x="23.638554"
         y="133.37349"
         style="font-style:normal">t</tspan></text>
    <text
       xml:space="preserve"
       style="font-size:10px;font-style:italic;font-weight:normal;fill:#000000;fill-opacity:1;stroke:none;stroke-width:1px;stroke-linecap:butt;stroke-linejoin:miter;stroke-opacity:1;font-family:Bitstream Vera Sans;-inkscape-font-specification:Sans"
       x="29.951805"
       y="137.54218"
       id="text6238"><tspan
         sodipodi:role="line"
         id="tspan6240"
         x="29.951805"
         y="137.54218"
         style="font-style:normal">7</tspan></text>
  </g>
</svg>
